<svg width="24" height="24" viewBox="0 0 24 24" fill="none" xmlns="http://www.w3.org/2000/svg">
<g clip-path="url(#clip0_848_8499)">
<path d="M17.25 8.7C18.824 8.7 20.1 7.42401 20.1 5.85C20.1 4.27599 18.824 3 17.25 3C15.676 3 14.4 4.27599 14.4 5.85C14.4 7.42401 15.676 8.7 17.25 8.7Z" stroke="black" stroke-width="1.9" stroke-linecap="round" stroke-linejoin="round"/>
<path d="M5.84998 15.35C7.42399 15.35 8.69998 14.074 8.69998 12.5C8.69998 10.926 7.42399 9.65002 5.84998 9.65002C4.27597 9.65002 2.99998 10.926 2.99998 12.5C2.99998 14.074 4.27597 15.35 5.84998 15.35Z" stroke="black" stroke-width="1.9" stroke-linecap="round" stroke-linejoin="round"/>
<path d="M17.25 22C18.824 22 20.1 20.7241 20.1 19.15C20.1 17.576 18.824 16.3 17.25 16.3C15.676 16.3 14.4 17.576 14.4 19.15C14.4 20.7241 15.676 22 17.25 22Z" stroke="black" stroke-width="1.9" stroke-linecap="round" stroke-linejoin="round"/>
<path d="M8.31044 13.9362L14.7989 17.7172" stroke="black" stroke-width="1.9" stroke-linecap="round" stroke-linejoin="round"/>
<path d="M14.7894 7.28613L8.31044 11.0671" stroke="black" stroke-width="1.9" stroke-linecap="round" stroke-linejoin="round"/>
</g>
<defs>
<clipPath id="clip0_848_8499">
<rect width="24" height="24" fill="white"/>
</clipPath>
</defs>
</svg>
