<svg width="24" height="24" viewBox="0 0 24 24" fill="none" xmlns="http://www.w3.org/2000/svg">
<path fill-rule="evenodd" clip-rule="evenodd" d="M1.5 12.625C1.5 6.75753 6.25753 2 12.125 2C17.9925 2 22.75 6.75753 22.75 12.625C22.75 18.4925 17.9925 23.25 12.125 23.25C6.25753 23.25 1.5 18.4925 1.5 12.625ZM12.125 3.7C7.19641 3.7 3.2 7.69641 3.2 12.625C3.2 17.5536 7.19641 21.55 12.125 21.55C17.0536 21.55 21.05 17.5536 21.05 12.625C21.05 7.69641 17.0536 3.7 12.125 3.7Z" fill="black"/>
<path fill-rule="evenodd" clip-rule="evenodd" d="M9.78754 11.1375C9.78754 10.668 10.1681 10.2875 10.6375 10.2875H12.3375C12.807 10.2875 13.1875 10.668 13.1875 11.1375V17.3C13.1875 17.7694 12.807 18.15 12.3375 18.15C11.8681 18.15 11.4875 17.7694 11.4875 17.3V11.9875H10.6375C10.1681 11.9875 9.78754 11.6069 9.78754 11.1375Z" fill="black"/>
<path fill-rule="evenodd" clip-rule="evenodd" d="M9.14996 17.5126C9.14996 17.0432 9.53052 16.6626 9.99996 16.6626H14.675C15.1444 16.6626 15.525 17.0432 15.525 17.5126C15.525 17.982 15.1444 18.3626 14.675 18.3626H9.99996C9.53052 18.3626 9.14996 17.982 9.14996 17.5126Z" fill="black"/>
<path d="M12.125 6.3562C11.8518 6.3562 11.5848 6.43721 11.3576 6.58898C11.1305 6.74076 10.9535 6.95648 10.8489 7.20887C10.7444 7.46126 10.717 7.73898 10.7703 8.00692C10.8236 8.27486 10.9552 8.52097 11.1483 8.71414C11.3415 8.90731 11.5876 9.03886 11.8556 9.09216C12.1235 9.14546 12.4012 9.1181 12.6536 9.01356C12.906 8.90902 13.1217 8.73198 13.2735 8.50483C13.4253 8.27769 13.5063 8.01064 13.5063 7.73745C13.5063 7.37112 13.3608 7.01979 13.1017 6.76076C12.8427 6.50173 12.4914 6.3562 12.125 6.3562Z" fill="black"/>
</svg>
