<svg width="24" height="24" viewBox="0 0 24 24" fill="none" xmlns="http://www.w3.org/2000/svg">
<g clip-path="url(#clip0_848_8130)">
<path fill-rule="evenodd" clip-rule="evenodd" d="M12.1705 4.4545C11.7312 4.01517 11.0188 4.01517 10.5795 4.4545L3.8295 11.2045C3.39017 11.6438 3.39017 12.3562 3.8295 12.7955L10.5795 19.5455C11.0188 19.9848 11.7312 19.9848 12.1705 19.5455C12.6098 19.1062 12.6098 18.3938 12.1705 17.9545L6.21599 12L12.1705 6.0455C12.6098 5.60616 12.6098 4.89384 12.1705 4.4545Z" fill="black"/>
<path fill-rule="evenodd" clip-rule="evenodd" d="M20.4375 12C20.4375 11.3787 19.9338 10.875 19.3125 10.875H5.625C5.00368 10.875 4.5 11.3787 4.5 12C4.5 12.6213 5.00368 13.125 5.625 13.125H19.3125C19.9338 13.125 20.4375 12.6213 20.4375 12Z" fill="black"/>
</g>
<defs>
<clipPath id="clip0_848_8130">
<rect width="24" height="24" fill="white"/>
</clipPath>
</defs>
</svg>
